<svg width="400" height="262" viewBox="0 0 400 262" fill="none" xmlns="http://www.w3.org/2000/svg">
<g clip-path="url(#clip0_624_2627)">
<path d="M397.352 261.239H0V260.343H397.352C397.6 260.343 397.8 260.544 397.8 260.791C397.8 261.039 397.6 261.239 397.352 261.239Z" fill="#3F3D56"/>
<path d="M98.0902 260.343H73.1957C69.4749 260.343 66.4478 257.316 66.4478 253.595V180.525C66.4478 176.804 69.4749 173.777 73.1957 173.777H98.0902C101.811 173.777 104.838 176.804 104.838 180.525V253.595C104.838 257.316 101.811 260.343 98.0902 260.343H98.0902Z" fill="#3F3D56"/>
<path d="M341.982 260.486H317.088C313.367 260.486 310.34 257.459 310.34 253.738V180.668C310.34 176.947 313.367 173.92 317.088 173.92H341.982C345.703 173.92 348.73 176.947 348.73 180.668V253.738C348.73 257.459 345.703 260.486 341.982 260.486Z" fill="#3F3D56"/>
<path d="M103.992 78.7791L67.333 130.845C62.9094 137.128 61.1555 144.908 62.4554 152.481L73.5968 217.392C75.9899 231.334 88.0786 241.525 102.224 241.525H317.644C332.996 241.525 345.698 229.577 346.636 214.253L350.935 144.026C351.447 135.665 348.325 127.491 342.37 121.601L290.949 70.7353C285.305 65.152 277.621 62.1224 269.685 62.3512L126.905 66.4668C117.754 66.7306 109.262 71.2934 103.992 78.7791L103.992 78.7791Z" fill="#6C63FF"/>
<path d="M109.576 88.0221L102.567 101.128C98.1004 109.48 104.613 119.342 114.521 119.232L290.004 117.283C300.783 117.163 306.854 105.544 300.407 97.3725L289.358 83.366C286.81 80.1359 282.769 78.2648 278.509 78.3419L121.085 81.1917C116.204 81.2801 111.777 83.9074 109.576 88.0221H109.576Z" fill="white"/>
<path d="M329.24 115.372C328.106 115.372 327.002 114.951 326.154 114.184C325.193 113.314 324.642 112.072 324.642 110.776L324.642 107.895L325.22 94.6179C325.327 92.1523 327.344 90.2212 329.812 90.2212H348.08C349.781 90.2212 351.335 91.1533 352.136 92.6544L354.312 96.7357C355 98.0266 355.039 99.5262 354.418 100.85C353.797 102.175 352.62 103.104 351.188 103.4L337.415 106.25C335.991 106.544 334.869 107.598 334.486 109.003L333.673 111.985C333.175 113.809 331.576 115.161 329.695 115.349C329.544 115.364 329.391 115.372 329.24 115.372H329.24Z" fill="#6C63FF"/>
<path d="M82.4713 115.349C80.5902 115.161 78.9917 113.809 78.494 111.985L77.6806 109.003C77.298 107.598 76.1755 106.544 74.7516 106.25L60.9789 103.4C59.5469 103.104 58.3693 102.175 57.7485 100.85C57.1277 99.5262 57.1663 98.0266 57.8543 96.7357L60.031 92.6544C60.8319 91.1533 62.3859 90.2212 64.087 90.2212H82.3552C84.823 90.2212 86.8397 92.1523 86.9471 94.6179L87.5245 107.895L87.5249 110.776C87.5249 112.072 86.9735 113.314 86.0127 114.184C85.1648 114.951 84.0606 115.372 82.9267 115.372C82.7753 115.372 82.6231 115.364 82.4713 115.349L82.4713 115.349V115.349Z" fill="#6C63FF"/>
<path d="M125.682 157.099C127.28 147.25 120.592 137.971 110.743 136.372C100.894 134.774 91.6147 141.462 90.0164 151.311C88.4182 161.16 95.1066 170.44 104.955 172.038C114.804 173.636 124.084 166.948 125.682 157.099Z" fill="white"/>
<path d="M315.985 172.648C325.963 172.648 334.051 164.559 334.051 154.582C334.051 144.604 325.963 136.516 315.985 136.516C306.008 136.516 297.919 144.604 297.919 154.582C297.919 164.559 306.008 172.648 315.985 172.648Z" fill="white"/>
<path d="M83.8015 57.6887C85.4651 58.6199 86.8815 59.9359 87.9323 61.5267L99.7951 68.5809L119.951 78.0216C119.951 78.0216 124.705 61.1237 130.384 60.0445C136.063 58.9652 145.432 71.4887 145.432 71.4887C145.432 71.4887 129.099 97.9342 121.985 95.2227C114.87 92.5111 98.9736 79.3425 98.9736 79.3425L96.897 77.655L83.6895 68.8687C81.786 68.7529 79.9379 68.1828 78.2998 67.2062C74.169 64.8199 72.0519 60.7541 73.571 58.1257C75.0901 55.497 79.6695 55.301 83.8015 57.6887V57.6887Z" fill="#A0616A"/>
<path d="M123.089 65.0232L133.396 52.8889L139.623 53.786C147.262 54.8864 151.508 63.2179 147.91 70.0449L144.322 76.8524L123.089 65.0232V65.0232Z" fill="#E6E6E6"/>
<path d="M89.571 80.9096L71.4291 55.8998C71.16 55.5306 71.2258 55.0131 71.5785 54.7219L75.9306 51.1282C76.1193 50.9724 76.3665 50.9037 76.6086 50.9394C76.8502 50.9755 77.0677 51.1121 77.2041 51.3164L95.2295 78.3689C95.378 78.5909 95.4155 78.8642 95.3328 79.1184C95.2498 79.3731 95.0579 79.5719 94.8061 79.6644L90.5713 81.2143C90.2599 81.3286 89.9123 81.2518 89.6766 81.0295C89.6383 80.9933 89.6026 80.9534 89.571 80.9096V80.9096Z" fill="#3F3D56"/>
<path d="M91.0134 79.3806L72.2372 55.0431C71.9589 54.6837 71.9782 54.2156 72.2808 53.9775L76.0145 51.0393C76.1764 50.9119 76.3994 50.869 76.626 50.9211C76.8522 50.9735 77.0642 51.1159 77.2067 51.3137L96.0391 77.5107C96.1943 77.7257 96.2508 77.9787 96.1948 78.2047C96.1385 78.431 95.9772 78.5975 95.7519 78.6619L91.9623 79.7397C91.6837 79.8193 91.3563 79.7211 91.1207 79.4988C91.0823 79.4626 91.0461 79.4232 91.0134 79.3806L91.0134 79.3806Z" fill="#E6E6E6"/>
<path d="M83.5217 231.559L75.3578 249.175L62.0378 243.16L72.3501 229.84L83.5217 231.559Z" fill="#A0616A"/>
<path d="M69.7721 243.589L79.6547 242.3C79.6547 242.3 86.5295 258.628 81.3734 259.488C76.2173 260.347 35.8276 264.214 35.8276 259.058C35.8276 253.902 52.585 247.457 52.585 247.457L64.1863 239.293L69.7721 243.589H69.7721Z" fill="#2F2E41"/>
<path d="M147.543 118.124C147.543 118.124 159.574 136.17 133.794 147.342L106.295 186.872L83.5216 236.285L69.772 231.129L93.8339 156.365L107.584 122.85L114.029 112.538L147.543 118.124V118.124Z" fill="#2F2E41"/>
<path d="M51.9467 184.624L46.4742 203.254L32.4119 199.271L40.6438 184.574L51.9467 184.624Z" fill="#A0616A"/>
<path d="M40.1247 198.554L49.7085 195.82C49.7085 195.82 58.9194 210.953 53.9467 212.564C48.9741 214.176 9.59854 223.966 8.83702 218.866C8.0755 213.767 23.6972 204.917 23.6972 204.917L33.9655 195.129L40.1247 198.554L40.1247 198.554H40.1247Z" fill="#2F2E41"/>
<path d="M121.334 114.515L55.2969 128.846C50.2014 129.952 46.2507 133.98 45.2446 139.096L36.0017 186.097L56.2306 192.663L65.3157 150.7L123.944 148.428L121.334 114.515Z" fill="#2F2E41"/>
<path d="M137.935 35.1075L129.77 51.1034L151.491 54.4828L151.255 32.9768L137.935 35.1075Z" fill="#A0616A"/>
<path d="M142.469 41.6702C150.82 41.6702 157.59 34.9006 157.59 26.5498C157.59 18.1991 150.82 11.4294 142.469 11.4294C134.119 11.4294 127.349 18.1991 127.349 26.5498C127.349 34.9006 134.119 41.6702 142.469 41.6702Z" fill="#A0616A"/>
<path d="M152.27 123.28L154.764 82.8868C156.921 73.2182 156.203 63.1297 152.697 53.8645L151.84 44.2195L132.075 45.5085L123.697 59.0433L115.748 91.0543L114.029 112.538L152.27 123.28L152.27 123.28Z" fill="#E6E6E6"/>
<path d="M94.4303 92.0257C96.3182 91.7599 98.2422 91.95 100.042 92.5802L113.754 91.0142L135.513 86.3279C135.513 86.3279 129.067 70.0001 132.934 65.7034C136.802 61.4066 151.84 65.7034 151.84 65.7034C151.84 65.7034 154.848 96.6401 147.543 98.7885C140.239 100.937 119.614 100.078 119.614 100.078L116.94 99.9913L101.109 100.992C99.5234 102.053 97.7073 102.717 95.8122 102.932C91.0797 103.533 86.9335 101.578 86.5515 98.5663C86.1695 95.5544 89.696 92.6264 94.4303 92.0257V92.0257L94.4303 92.0257Z" fill="#A0616A"/>
<path d="M130.142 74.082L131.001 58.184L136.501 55.1286C143.247 51.3809 151.67 55.4422 152.938 63.0542L154.204 70.6446L130.142 74.082L130.142 74.082V74.082Z" fill="#E6E6E6"/>
<path d="M154.258 35.843C154.258 35.843 155.668 28.7932 151.438 28.3232C147.208 27.8532 142.978 19.3934 142.978 19.3934C142.978 19.3934 128.383 16.8475 127.913 22.9573C127.443 29.0672 127.623 27.7093 127.623 27.7093C127.623 27.7093 124.153 26.2473 125.563 20.1374C125.965 18.3917 126.944 16.7995 128.136 15.4156C131.967 10.9677 137.853 8.86639 143.685 9.5388C146.155 9.82357 153.508 12.1677 154.929 13.7657C158.689 17.9956 160.368 31.1431 154.258 35.843Z" fill="#3F3D56"/>
<path d="M104.408 215.095C101.755 215.095 99.415 213.707 98.1419 211.377C96.8616 209.033 96.9661 206.298 98.4212 204.059L98.6374 204.2L98.4212 204.059L103.137 196.804C104.46 194.769 106.699 193.554 109.126 193.554H314.243C316.334 193.554 318.313 194.465 319.672 196.055L324.847 202.108C326.675 204.246 327.084 207.163 325.914 209.721C324.744 212.279 322.27 213.877 319.458 213.893L104.45 215.095H104.408L104.408 215.095Z" fill="#3F3D56"/>
<path d="M349.816 127.507C353.59 129.974 357.922 130.028 359.492 127.626C361.062 125.225 359.276 121.278 355.501 118.81C354.006 117.803 352.293 117.169 350.503 116.96L334.383 106.706L329.732 114.373L346.117 123.668C347.026 125.225 348.294 126.541 349.816 127.507V127.507V127.507Z" fill="#FFB6B6"/>
<path d="M303.968 102.236L343.515 122.676L346.955 113.214L320.131 92.2024L318.345 61.5475C318.127 57.804 316.25 54.4109 313.194 52.2375C310.139 50.0651 306.318 49.4047 302.71 50.4264C296.287 52.2459 292.458 58.9749 294.175 65.4258L303.968 102.236V102.236Z" fill="#E6E6E6"/>
<path d="M313.521 47.3813L315.37 35.825L302.889 30.7402L301.04 48.3058L313.521 47.3813Z" fill="#FFB6B6"/>
<path d="M274.217 113.138C274.217 113.138 270.634 135.532 284.966 138.219C299.298 140.906 331.993 142.698 331.993 142.698L374.093 193.756L382.603 184.35L346.325 128.366L317.213 110.003L274.217 113.138Z" fill="#2F2E41"/>
<path d="M277.638 109.513C277.638 109.513 269.282 130.596 282.69 136.329C296.097 142.061 327.625 150.903 327.625 150.903L357.646 209.878L367.993 202.543L344.725 140.022L320.29 115.781L277.638 109.513V109.513Z" fill="#2F2E41"/>
<path d="M315.87 45.5093L299.746 42.822L288.818 48.9046C282.458 58.1561 281.932 87.4989 280.431 98.625L271.53 119.408L299.746 115.378L322.588 113.138L314.974 63.4242L315.87 45.5093L315.87 45.5093V45.5093Z" fill="#E6E6E6"/>
<path d="M310.367 39.54C317.396 39.54 323.094 33.8418 323.094 26.8126C323.094 19.7835 317.396 14.0852 310.367 14.0852C303.338 14.0852 297.639 19.7835 297.639 26.8126C297.639 33.8418 303.338 39.54 310.367 39.54Z" fill="#FFB6B6"/>
<path d="M309.351 9.70149C309.719 9.91647 310.213 9.59121 310.331 9.18145C310.449 8.7717 310.311 8.33664 310.175 7.93261C309.946 7.25463 309.717 6.57665 309.488 5.89867C309.001 4.45616 308.484 2.96324 307.429 1.8653C305.837 0.20813 303.307 -0.213444 301.03 0.0919711C298.105 0.484185 295.219 2.06798 293.859 4.687C292.499 7.30602 293.078 10.9605 295.535 12.5945C292.033 16.6088 290.812 21.0825 291.005 26.4064C291.198 31.7303 296.999 36.63 300.783 40.3804C301.628 39.8683 302.396 37.468 301.931 36.596C301.467 35.724 302.132 34.7138 301.557 33.9106C300.981 33.1074 300.5 34.3863 301.082 33.5877C301.449 33.0838 300.016 31.9244 300.562 31.6228C303.201 30.1639 304.079 26.8742 305.736 24.355C307.736 21.3164 311.158 19.2586 314.779 18.9172C316.774 18.7292 318.881 19.0698 320.516 20.2279C322.151 21.386 323.21 23.4556 322.831 25.4231C323.813 24.426 324.302 22.9648 324.117 21.5776C323.933 20.1903 323.079 18.9075 321.871 18.2015C322.606 15.7719 321.976 12.9771 320.271 11.0969C318.566 9.21675 311.648 9.53698 309.158 10.0318" fill="#2F2E41"/>
<path d="M308.964 18.991C305.667 19.3469 303.286 22.2032 301.276 24.841C300.117 26.3614 298.903 28.0404 298.932 29.9517C298.962 31.8842 300.254 33.5417 300.871 35.3731C301.88 38.3665 300.897 41.928 298.494 43.9791C300.868 44.4296 303.435 42.6496 303.844 40.2682C304.321 37.496 302.22 34.8203 302.469 32.0184C302.688 29.5498 304.633 27.65 306.287 25.8043C307.941 23.9585 309.494 21.5093 308.733 19.1507" fill="#2F2E41"/>
<path d="M339.701 129.9C343.474 132.368 347.806 132.422 349.376 130.02C350.946 127.618 349.16 123.672 345.385 121.203C343.891 120.197 342.177 119.563 340.387 119.354L324.267 109.099L319.616 116.767L336.001 126.062C336.91 127.618 338.179 128.935 339.701 129.9V129.9Z" fill="#FFB6B6"/>
<path d="M293.853 104.63L333.399 125.07L336.84 115.608L310.015 94.5962L308.23 63.9413C308.012 60.1978 306.134 56.8047 303.079 54.6313C300.024 52.4589 296.202 51.7985 292.594 52.8202C286.172 54.6396 282.343 61.3687 284.059 67.8196L293.853 104.63V104.63V104.63Z" fill="#E6E6E6"/>
<path d="M359.07 201.966L359.985 202.489C359.985 202.489 366.256 198.906 369.391 202.489C372.526 206.072 374.765 215.03 374.765 215.03C374.765 215.03 387.754 225.779 380.14 225.779C374.408 225.779 360.81 219.434 354.436 216.297C352.401 215.295 351.454 212.916 352.245 210.79C352.905 209.019 353.758 207.16 354.611 206.52C355.507 205.848 356.067 204.393 356.402 203.105C356.707 201.938 358.023 201.368 359.07 201.966H359.07Z" fill="#2F2E41"/>
<path d="M376.537 184.947L377.453 185.47C377.453 185.47 383.723 181.887 386.858 185.47C389.993 189.053 392.232 198.01 392.232 198.01C392.232 198.01 405.221 208.759 397.607 208.759C391.875 208.759 378.277 202.415 371.903 199.277C369.868 198.276 368.921 195.896 369.712 193.771C370.372 192 371.225 190.141 372.078 189.501C372.974 188.829 373.534 187.373 373.869 186.086C374.174 184.919 375.49 184.349 376.537 184.947H376.537Z" fill="#2F2E41"/>
</g>
<defs>
<clipPath id="clip0_624_2627">
<rect width="400" height="261.687" fill="white"/>
</clipPath>
</defs>
</svg>
