<svg width="132" height="126" viewBox="0 0 132 126" fill="none" xmlns="http://www.w3.org/2000/svg">
<g clip-path="url(#clip0_642_2936)">
<path d="M13.2231 106.144L12.073 101.781C10.0338 100.949 7.94753 100.229 5.82404 99.6237L5.67888 101.652L5.09015 99.4174C2.45665 98.6932 0.665039 98.3746 0.665039 98.3746C0.665039 98.3746 3.08447 107.227 8.16072 113.995L14.075 114.995L9.48036 115.632C10.1189 116.371 10.8051 117.071 11.535 117.727C18.9186 124.32 27.1428 127.345 29.9039 124.483C32.665 121.622 28.9177 113.957 21.5341 107.365C19.2451 105.321 16.3696 103.681 13.4912 102.389L13.2231 106.144Z" fill="#F2F2F2"/>
<path d="M24.1606 101.404L25.5207 97.0972C24.2219 95.3715 22.823 93.7176 21.3306 92.1435L20.1166 93.8073L20.813 91.602C18.9474 89.6732 17.585 88.5096 17.585 88.5096C17.585 88.5096 14.9 97.2911 15.6083 105.609L20.1342 109.405L15.8577 107.666C16.0074 108.616 16.219 109.557 16.4913 110.482C19.2695 119.797 24.6843 126.476 28.5855 125.4C32.4868 124.323 33.3974 115.898 30.6193 106.583C29.7581 103.695 28.1777 100.861 26.4075 98.3243L24.1606 101.404Z" fill="#F2F2F2"/>
<path d="M91.7888 29.8495H91.0714V10.943C91.0714 9.50594 90.7772 8.08296 90.2055 6.75529C89.6339 5.42763 88.796 4.22128 87.7396 3.20513C86.6833 2.18898 85.4293 1.38292 84.0492 0.832985C82.6691 0.283048 81.1899 0 79.696 0H38.056C35.0391 0 32.1457 1.15292 30.0124 3.20513C27.8791 5.25734 26.6807 8.04073 26.6807 10.943V114.667C26.6807 116.104 26.9749 117.527 27.5466 118.855C28.1182 120.183 28.9561 121.389 30.0124 122.405C31.0687 123.421 32.3227 124.227 33.7029 124.777C35.083 125.327 36.5622 125.61 38.056 125.61H79.696C82.713 125.61 85.6063 124.457 87.7395 122.405C89.8728 120.353 91.0712 117.569 91.0712 114.667V43.3075H91.7887L91.7888 29.8495Z" fill="#E6E6E6"/>
<path d="M80.1549 2.84595H74.72C74.9699 3.4355 75.0654 4.07515 74.9978 4.70854C74.9302 5.34193 74.7018 5.94961 74.3326 6.47805C73.9634 7.00649 73.4647 7.43947 72.8806 7.73883C72.2964 8.0382 71.6447 8.19477 70.9828 8.19474H47.1277C46.4659 8.19471 45.8142 8.0381 45.2301 7.73871C44.646 7.43932 44.1474 7.00634 43.7783 6.47791C43.4091 5.94948 43.1807 5.34182 43.1131 4.70846C43.0456 4.0751 43.141 3.43548 43.391 2.84595H38.3144C36.0613 2.84595 33.9006 3.70694 32.3075 5.23951C30.7143 6.77208 29.8193 8.85069 29.8193 11.0181V114.592C29.8193 116.759 30.7143 118.838 32.3075 120.37C33.9006 121.903 36.0613 122.764 38.3144 122.764H80.1549C82.4079 122.764 84.5687 121.903 86.1618 120.37C87.7549 118.838 88.65 116.759 88.65 114.592V114.592V11.0179C88.6499 8.85055 87.7549 6.77198 86.1618 5.23945C84.5686 3.70691 82.4079 2.84595 80.1549 2.84595V2.84595Z" fill="white"/>
<path d="M53.9025 44.1044C53.9024 43.3804 54.1005 42.6692 54.4769 42.0423C54.8533 41.4154 55.3947 40.8949 56.0467 40.5332C55.395 40.1712 54.6558 39.9805 53.9033 39.9805C53.1508 39.9804 52.4115 40.1709 51.7598 40.5328C51.1081 40.8947 50.5669 41.4153 50.1906 42.0422C49.8143 42.6691 49.6162 43.3802 49.6162 44.1041C49.6162 44.828 49.8143 45.5392 50.1906 46.1661C50.5669 46.793 51.1081 47.3136 51.7598 47.6755C52.4115 48.0374 53.1508 48.2279 53.9033 48.2278C54.6558 48.2277 55.395 48.0371 56.0467 47.675C55.3947 47.3135 54.8533 46.7931 54.4769 46.1663C54.1005 45.5394 53.9024 44.8283 53.9025 44.1044V44.1044Z" fill="#CCCCCC"/>
<path d="M59.2912 44.1044C59.291 43.3804 59.4891 42.6692 59.8655 42.0423C60.2419 41.4153 60.7834 40.8949 61.4353 40.5332C60.7837 40.1712 60.0445 39.9805 59.292 39.9805C58.5395 39.9804 57.8002 40.1709 57.1485 40.5328C56.4967 40.8947 55.9555 41.4153 55.5793 42.0422C55.203 42.6691 55.0049 43.3802 55.0049 44.1041C55.0049 44.828 55.203 45.5392 55.5793 46.1661C55.9555 46.793 56.4967 47.3136 57.1485 47.6755C57.8002 48.0374 58.5395 48.2279 59.292 48.2278C60.0445 48.2277 60.7837 48.0371 61.4353 47.675C60.7834 47.3135 60.242 46.7931 59.8656 46.1663C59.4892 45.5394 59.2911 44.8283 59.2912 44.1044V44.1044Z" fill="#CCCCCC"/>
<path d="M64.5581 48.2279C66.9255 48.2279 68.8447 46.3817 68.8447 44.1043C68.8447 41.8268 66.9255 39.9806 64.5581 39.9806C62.1907 39.9806 60.2715 41.8268 60.2715 44.1043C60.2715 46.3817 62.1907 48.2279 64.5581 48.2279Z" fill="#005BAA"/>
<path d="M71.7222 56.9841H46.7389C46.5011 56.9838 46.273 56.8928 46.1049 56.731C45.9367 56.5692 45.8421 56.3499 45.8418 56.1211V32.0874C45.8421 31.8586 45.9367 31.6392 46.1049 31.4774C46.273 31.3156 46.5011 31.2246 46.7389 31.2244H71.7222C71.96 31.2246 72.1881 31.3156 72.3562 31.4774C72.5244 31.6392 72.619 31.8586 72.6193 32.0874V56.1211C72.619 56.3499 72.5244 56.5692 72.3562 56.731C72.1881 56.8928 71.96 56.9838 71.7222 56.9841V56.9841ZM46.7389 31.5698C46.5962 31.5699 46.4594 31.6245 46.3585 31.7216C46.2576 31.8187 46.2008 31.9503 46.2007 32.0876V56.1212C46.2008 56.2585 46.2576 56.3901 46.3585 56.4872C46.4594 56.5843 46.5962 56.6389 46.7389 56.639H71.7222C71.8649 56.6389 72.0017 56.5843 72.1026 56.4872C72.2035 56.3901 72.2603 56.2585 72.2604 56.1212V32.0876C72.2603 31.9503 72.2035 31.8187 72.1026 31.7216C72.0017 31.6245 71.8649 31.5699 71.7222 31.5698H46.7389Z" fill="#CCCCCC"/>
<path d="M77.3002 75.407H38.9834V75.7522H77.3002V75.407Z" fill="#CCCCCC"/>
<path d="M40.1935 73.2516C40.8618 73.2516 41.4035 72.7304 41.4035 72.0875C41.4035 71.4446 40.8618 70.9235 40.1935 70.9235C39.5252 70.9235 38.9834 71.4446 38.9834 72.0875C38.9834 72.7304 39.5252 73.2516 40.1935 73.2516Z" fill="#005BAA"/>
<path d="M77.3002 87.0471H38.9834V87.3924H77.3002V87.0471Z" fill="#CCCCCC"/>
<path d="M40.1935 84.8919C40.8618 84.8919 41.4035 84.3707 41.4035 83.7278C41.4035 83.0849 40.8618 82.5637 40.1935 82.5637C39.5252 82.5637 38.9834 83.0849 38.9834 83.7278C38.9834 84.3707 39.5252 84.8919 40.1935 84.8919Z" fill="#005BAA"/>
<path d="M76.5993 100.302H64.4901C64.2809 100.302 64.0804 100.222 63.9325 100.08C63.7846 99.9374 63.7014 99.7445 63.7012 99.5432V95.4604C63.7014 95.2592 63.7846 95.0662 63.9325 94.924C64.0804 94.7817 64.2809 94.7016 64.4901 94.7014H76.5993C76.8084 94.7016 77.009 94.7817 77.1569 94.924C77.3048 95.0662 77.388 95.2592 77.3882 95.4604V99.5432C77.388 99.7445 77.3048 99.9374 77.1569 100.08C77.009 100.222 76.8084 100.302 76.5993 100.302V100.302Z" fill="#005BAA"/>
<path d="M44.1407 73.2516C44.809 73.2516 45.3508 72.7304 45.3508 72.0875C45.3508 71.4446 44.809 70.9235 44.1407 70.9235C43.4724 70.9235 42.9307 71.4446 42.9307 72.0875C42.9307 72.7304 43.4724 73.2516 44.1407 73.2516Z" fill="#005BAA"/>
<path d="M48.088 73.2516C48.7563 73.2516 49.2981 72.7304 49.2981 72.0875C49.2981 71.4446 48.7563 70.9235 48.088 70.9235C47.4197 70.9235 46.8779 71.4446 46.8779 72.0875C46.8779 72.7304 47.4197 73.2516 48.088 73.2516Z" fill="#005BAA"/>
<path d="M44.1407 84.8919C44.809 84.8919 45.3508 84.3707 45.3508 83.7278C45.3508 83.0849 44.809 82.5637 44.1407 82.5637C43.4724 82.5637 42.9307 83.0849 42.9307 83.7278C42.9307 84.3707 43.4724 84.8919 44.1407 84.8919Z" fill="#005BAA"/>
<path d="M48.088 84.8919C48.7563 84.8919 49.2981 84.3707 49.2981 83.7278C49.2981 83.0849 48.7563 82.5637 48.088 82.5637C47.4197 82.5637 46.8779 83.0849 46.8779 83.7278C46.8779 84.3707 47.4197 84.8919 48.088 84.8919Z" fill="#005BAA"/>
<path d="M130.765 126H4.88716C4.61769 126 4.39941 125.908 4.39941 125.795C4.39941 125.681 4.61769 125.589 4.88716 125.589H130.765C131.035 125.589 131.253 125.681 131.253 125.795C131.253 125.908 131.035 126 130.765 126Z" fill="#3F3D56"/>
<path d="M99.6653 82.5513C99.7513 82.5891 99.834 82.6335 99.9126 82.6841L107.776 79.4554L108.057 77.4627L111.199 77.4442L111.013 82.0145L100.634 84.655C100.612 84.7244 100.586 84.7925 100.556 84.8588C100.406 85.1668 100.164 85.4253 99.8622 85.6018C99.5599 85.7784 99.2101 85.865 98.8568 85.851C98.5035 85.8369 98.1624 85.7227 97.8763 85.5227C97.5903 85.3228 97.372 85.046 97.2489 84.7271C97.1258 84.4082 97.1035 84.0614 97.1846 83.7303C97.2657 83.3992 97.4467 83.0985 97.7049 82.8661C97.963 82.6336 98.2868 82.4797 98.6356 82.4237C98.9844 82.3677 99.3426 82.4121 99.6653 82.5513V82.5513Z" fill="#FFB8B8"/>
<path d="M112.341 123.967H110.191L109.169 115.991L112.341 115.991L112.341 123.967Z" fill="#FFB8B8"/>
<path d="M108.657 123.376H112.802V125.887H106.047C106.047 125.221 106.322 124.582 106.811 124.111C107.301 123.64 107.965 123.376 108.657 123.376Z" fill="#2F2E41"/>
<path d="M120.7 123.382L118.561 123.585L116.73 115.745L119.887 115.445L120.7 123.382Z" fill="#FFB8B8"/>
<path d="M116.973 123.142L121.099 122.751L121.355 125.25L114.632 125.887C114.598 125.559 114.632 125.227 114.732 124.912C114.831 124.596 114.994 124.303 115.212 124.048C115.429 123.793 115.697 123.582 115.999 123.426C116.301 123.271 116.632 123.174 116.973 123.142Z" fill="#2F2E41"/>
<path d="M112.94 69.0035C115.318 69.0035 117.246 67.1489 117.246 64.8611C117.246 62.5734 115.318 60.7188 112.94 60.7188C110.562 60.7188 108.634 62.5734 108.634 64.8611C108.634 67.1489 110.562 69.0035 112.94 69.0035Z" fill="#FFB8B8"/>
<path d="M109.711 122.354C109.527 122.354 109.348 122.292 109.206 122.178C109.065 122.064 108.969 121.905 108.937 121.73C107.825 115.789 104.188 96.3632 104.101 95.8251C104.099 95.8128 104.099 95.8003 104.099 95.7877V94.3393C104.098 94.2866 104.116 94.2351 104.148 94.1923L104.628 93.545C104.651 93.5138 104.681 93.4881 104.716 93.4699C104.75 93.4516 104.789 93.4412 104.829 93.4396C107.567 93.316 116.537 92.954 116.971 93.4748C117.406 93.9982 117.252 95.5842 117.217 95.8968L117.218 95.9294L121.248 120.721C121.28 120.919 121.229 121.121 121.107 121.283C120.985 121.445 120.802 121.554 120.597 121.587L118.08 121.986C117.893 122.015 117.701 121.978 117.539 121.883C117.377 121.787 117.257 121.639 117.199 121.465C116.42 119.072 113.81 111.022 112.905 107.907C112.9 107.887 112.887 107.87 112.869 107.859C112.851 107.847 112.83 107.843 112.809 107.846C112.788 107.849 112.768 107.859 112.755 107.874C112.741 107.89 112.733 107.91 112.734 107.93C112.779 110.899 112.888 118.475 112.926 121.092L112.93 121.373C112.931 121.564 112.859 121.749 112.726 121.89C112.593 122.032 112.41 122.121 112.212 122.138L109.785 122.351C109.76 122.353 109.736 122.354 109.711 122.354Z" fill="#2F2E41"/>
<path d="M110.206 70.6324C109.455 71.0622 109.005 71.8519 108.747 72.6555C108.269 74.1432 107.982 75.6815 107.891 77.2361L107.618 81.8911L104.242 94.2317C107.168 96.6133 108.856 96.0721 112.794 94.124C116.733 92.176 117.183 94.7735 117.183 94.7735L117.971 84.2732L119.096 72.799C118.843 72.5064 118.558 72.242 118.244 72.0107C117.204 71.2327 115.993 70.6919 114.705 70.4291C113.416 70.1663 112.081 70.1883 110.803 70.4936L110.206 70.6324Z" fill="#005BAA"/>
<path d="M109.11 85.0437C109.201 85.0765 109.289 85.1162 109.373 85.1624L117.148 81.4186L117.277 79.3905L120.485 79.1777L120.657 83.8011L110.266 87.1066C110.181 87.4567 109.988 87.7736 109.711 88.0153C109.434 88.2569 109.088 88.4118 108.717 88.4593C108.347 88.5069 107.97 88.4448 107.637 88.2814C107.305 88.118 107.031 87.861 106.854 87.5446C106.677 87.2282 106.604 86.8674 106.645 86.5101C106.686 86.1528 106.839 85.816 107.084 85.5445C107.329 85.273 107.654 85.0797 108.016 84.9902C108.378 84.9008 108.759 84.9194 109.11 85.0437Z" fill="#FFB8B8"/>
<path d="M119.04 72.8515C120.953 73.5011 121.29 80.5379 121.29 80.5379C119.04 79.3471 116.339 81.2957 116.339 81.2957C116.339 81.2957 115.776 79.4554 115.101 77.0738C114.897 76.4039 114.873 75.6953 115.03 75.0139C115.188 74.3326 115.522 73.7006 116.001 73.1768C116.001 73.1768 117.127 72.2016 119.04 72.8515Z" fill="#005BAA"/>
<path d="M116.8 65.9566C116.264 65.5437 115.532 66.2942 115.532 66.2942L115.102 62.5781C115.102 62.5781 112.42 62.8872 110.703 62.475C108.986 62.0627 108.718 63.9718 108.718 63.9718C108.629 63.2006 108.612 62.4235 108.664 61.6492C108.772 60.7202 110.167 59.7912 112.635 59.1718C115.102 58.5524 116.39 61.2363 116.39 61.2363C118.107 62.062 117.337 66.3696 116.8 65.9566Z" fill="#2F2E41"/>
</g>
<defs>
<clipPath id="clip0_642_2936">
<rect width="130.588" height="126" fill="white" transform="translate(0.665039)"/>
</clipPath>
</defs>
</svg>
