<svg width="101" height="100" viewBox="0 0 101 100" fill="none" xmlns="http://www.w3.org/2000/svg">
<path d="M84.9361 88.0418C84.1075 88.041 83.3132 87.7113 82.7277 87.1251L56.1444 60.5418C55.5632 59.9537 55.2373 59.1602 55.2373 58.3335C55.2373 57.5067 55.5632 56.7132 56.1444 56.1251L88.3527 23.9168C89.1444 23.1251 90.3527 22.8335 91.4361 23.1251C92.5194 23.4585 93.3527 24.3335 93.6027 25.4168C94.3944 28.9584 94.8111 32.9168 94.8111 37.5001V62.5001C94.8111 74.0418 92.3944 81.8334 87.1444 87.1251C86.5611 87.7085 85.6861 87.8334 84.9361 88.0418ZM62.7694 58.3335L84.6861 80.2501C87.3111 76.2085 88.5611 70.4585 88.5611 62.5001V37.5001C88.5611 35.7918 88.5194 34.2084 88.3944 32.7084L62.7694 58.3335Z" fill="url(#paint0_linear_627_2721)"/>
<path d="M26.1401 93.6666C25.8901 93.6666 25.6817 93.6249 25.4317 93.5833C11.6401 90.4166 5.22339 80.5416 5.22339 62.4999V37.4999C5.22339 14.8749 14.8901 5.20825 37.515 5.20825H62.515C80.5567 5.20825 90.4317 11.6249 93.5984 25.4166C93.8484 26.4583 93.515 27.5833 92.765 28.3333L28.3484 92.7499C27.7629 93.3361 26.9686 93.6659 26.1401 93.6666ZM37.515 11.4583C18.3067 11.4583 11.4734 18.2916 11.4734 37.4999V62.4999C11.4734 76.9583 15.4734 84.2083 25.1817 87.0833L87.0567 25.2083C84.2234 15.4999 76.9317 11.4999 62.4734 11.4999H37.515V11.4583Z" fill="url(#paint1_linear_627_2721)"/>
<path d="M62.515 94.7958H37.515C32.9317 94.7958 29.015 94.4208 25.4317 93.5875C24.8878 93.4712 24.3863 93.2075 23.9822 92.8254C23.578 92.4433 23.2867 91.9574 23.14 91.4208C22.8067 90.3375 23.14 89.1708 23.9317 88.3375L56.14 56.1292C57.3484 54.9208 59.3484 54.9208 60.5567 56.1292L87.14 82.7125C87.7253 83.2984 88.054 84.0927 88.054 84.9208C88.054 85.749 87.7253 86.5432 87.14 87.1292C81.8484 92.3792 74.0567 94.7958 62.515 94.7958ZM32.7234 88.3792C34.2234 88.5042 35.8067 88.5458 37.515 88.5458H62.515C70.515 88.5458 76.2234 87.2958 80.265 84.6708L58.3484 62.7542L32.7234 88.3792ZM38.0109 55.4583C35.3859 55.4583 32.7609 54.5 30.6775 52.5417C24.0525 46.25 21.3859 39.3333 22.9692 32.5833C24.5525 25.6667 30.5942 21 38.0109 21C45.4275 21 51.4692 25.6667 53.0525 32.5833C54.5942 39.375 51.9275 46.25 45.3025 52.5417C43.2609 54.4583 40.6359 55.4583 38.0109 55.4583ZM29.0525 33.9583C27.7192 39.625 31.5525 44.7083 35.0109 48C36.7192 49.625 39.3442 49.625 41.0109 48C44.4275 44.75 48.2609 39.6667 46.9692 33.9583C45.8442 29 41.4275 27.2083 38.0109 27.2083C34.5942 27.2083 30.2192 29 29.0525 33.9583Z" fill="url(#paint2_linear_627_2721)"/>
<path d="M38.1318 39.5333C35.8401 39.5333 33.9651 37.6583 33.9651 35.3666C33.9651 33.075 35.7984 31.2 38.1318 31.2H38.1734C40.4651 31.2 42.3401 33.075 42.3401 35.3666C42.3401 37.6583 40.4234 39.5333 38.1318 39.5333Z" fill="url(#paint3_linear_627_2721)"/>
<defs>
<linearGradient id="paint0_linear_627_2721" x1="50.8623" y1="52.4242" x2="98.3412" y2="52.3286" gradientUnits="userSpaceOnUse">
<stop stop-color="#71B340"/>
<stop offset="1" stop-color="#01A45F"/>
</linearGradient>
<linearGradient id="paint1_linear_627_2721" x1="-4.55578" y1="45.2151" x2="101.57" y2="44.8641" gradientUnits="userSpaceOnUse">
<stop stop-color="#71B340"/>
<stop offset="1" stop-color="#01A45F"/>
</linearGradient>
<linearGradient id="paint2_linear_627_2721" x1="15.2805" y1="54.3754" x2="93.899" y2="54.1446" gradientUnits="userSpaceOnUse">
<stop stop-color="#71B340"/>
<stop offset="1" stop-color="#01A45F"/>
</linearGradient>
<linearGradient id="paint3_linear_627_2721" x1="33.0392" y1="34.9688" x2="43.0871" y2="34.9354" gradientUnits="userSpaceOnUse">
<stop stop-color="#71B340"/>
<stop offset="1" stop-color="#01A45F"/>
</linearGradient>
</defs>
</svg>
