<svg width="100" height="100" viewBox="0 0 100 100" fill="none" xmlns="http://www.w3.org/2000/svg">
<path d="M73.1667 8.33325H26.7084C16.5834 8.33325 8.33337 16.5833 8.33337 26.7083V54.6249C8.33337 59.4983 10.2693 64.172 13.7153 67.618C17.1613 71.064 21.835 72.9999 26.7084 72.9999H42.7084C45 72.9999 46.875 74.8749 46.875 77.1666V81.2083C46.875 83.4999 45 85.3749 42.7084 85.3749H32.625C31.7907 85.3749 30.9906 85.7064 30.4006 86.2963C29.8106 86.8863 29.4792 87.6864 29.4792 88.5208C29.4792 89.3551 29.8106 90.1552 30.4006 90.7452C30.9906 91.3352 31.7907 91.6666 32.625 91.6666H67.4167C69.125 91.6666 70.5417 90.2499 70.5417 88.5416C70.5417 86.8333 69.125 85.4166 67.4167 85.4166H57.3334C55.0417 85.4166 53.1667 83.5416 53.1667 81.2499V77.2083C53.1667 74.9166 55.0417 73.0416 57.3334 73.0416H73.2084C75.6214 73.0416 78.0108 72.5663 80.2402 71.6429C82.4695 70.7194 84.4952 69.366 86.2015 67.6597C87.9077 65.9534 89.2612 63.9278 90.1847 61.6984C91.1081 59.469 91.5834 57.0796 91.5834 54.6666V26.7499C91.5417 16.5833 83.2917 8.33325 73.1667 8.33325Z" fill="url(#paint0_linear_627_2728)"/>
<defs>
<linearGradient id="paint0_linear_627_2728" x1="-28.5" y1="44" x2="124" y2="44" gradientUnits="userSpaceOnUse">
<stop stop-color="#009DDC"/>
<stop offset="1" stop-color="#004D6B"/>
</linearGradient>
</defs>
</svg>
