<svg width="100" height="100" viewBox="0 0 100 100" fill="none" xmlns="http://www.w3.org/2000/svg">
<path d="M50.0001 79.1667C53.8303 79.1667 57.623 78.4123 61.1617 76.9466C64.7003 75.4808 67.9156 73.3324 70.624 70.624C73.3324 67.9156 75.4808 64.7003 76.9466 61.1617C78.4123 57.623 79.1667 53.8303 79.1667 50.0001C79.1667 46.1699 78.4123 42.3771 76.9466 38.8385C75.4808 35.2998 73.3324 32.0845 70.624 29.3761C67.9156 26.6678 64.7003 24.5194 61.1617 23.0536C57.623 21.5878 53.8303 20.8334 50.0001 20.8334C42.2646 20.8334 34.8459 23.9063 29.3761 29.3761C23.9063 34.8459 20.8334 42.2646 20.8334 50.0001C20.8334 57.7356 23.9063 65.1542 29.3761 70.624C34.8459 76.0938 42.2646 79.1667 50.0001 79.1667ZM50.0001 95.6667C47.7084 95.6667 45.8334 93.9584 45.8334 91.6667V91.3334C45.8334 89.0417 47.7084 87.1667 50.0001 87.1667C52.2917 87.1667 54.1667 89.0417 54.1667 91.3334C54.1667 93.6251 52.2917 95.6667 50.0001 95.6667ZM79.7501 83.9167C78.6667 83.9167 77.6251 83.5001 76.7917 82.7084L76.2501 82.1667C75.8643 81.781 75.5583 81.323 75.3496 80.819C75.1408 80.315 75.0333 79.7748 75.0333 79.2292C75.0333 78.6837 75.1408 78.1435 75.3496 77.6395C75.5583 77.1355 75.8643 76.6775 76.2501 76.2917C76.6358 75.906 77.0938 75.6 77.5978 75.3912C78.1018 75.1824 78.642 75.075 79.1876 75.075C79.7331 75.075 80.2733 75.1824 80.7773 75.3912C81.2814 75.6 81.7393 75.906 82.1251 76.2917L82.6667 76.8334C83.2457 77.4128 83.6402 78.1505 83.8007 78.9537C83.9612 79.7569 83.8804 80.5895 83.5686 81.3469C83.2567 82.1043 82.7277 82.7524 82.0482 83.2097C81.3687 83.667 80.5691 83.913 79.7501 83.9167ZM20.2501 83.9167C19.1667 83.9167 18.1251 83.5001 17.2917 82.7084C16.9055 82.3229 16.599 81.8651 16.3899 81.361C16.1809 80.857 16.0732 80.3166 16.0732 79.7709C16.0732 79.2252 16.1809 78.6849 16.3899 78.1808C16.599 77.6768 16.9055 77.2189 17.2917 76.8334L17.8334 76.2917C18.2192 75.906 18.6771 75.6 19.1812 75.3912C19.6852 75.1824 20.2254 75.075 20.7709 75.075C21.3165 75.075 21.8567 75.1824 22.3607 75.3912C22.8647 75.6 23.3227 75.906 23.7084 76.2917C24.0942 76.6775 24.4002 77.1355 24.6089 77.6395C24.8177 78.1435 24.9252 78.6837 24.9252 79.2292C24.9252 79.7748 24.8177 80.315 24.6089 80.819C24.4002 81.323 24.0942 81.781 23.7084 82.1667L23.1667 82.7084C22.3751 83.5001 21.2917 83.9167 20.2501 83.9167ZM91.6667 54.1667H91.3334C89.0417 54.1667 87.1667 52.2917 87.1667 50.0001C87.1667 47.7084 89.0417 45.8334 91.3334 45.8334C93.6251 45.8334 95.6667 47.7084 95.6667 50.0001C95.6667 52.2917 93.9584 54.1667 91.6667 54.1667ZM8.66675 54.1667H8.33341C6.04175 54.1667 4.16675 52.2917 4.16675 50.0001C4.16675 47.7084 6.04175 45.8334 8.33341 45.8334C10.6251 45.8334 12.6667 47.7084 12.6667 50.0001C12.6667 52.2917 10.9584 54.1667 8.66675 54.1667ZM79.2084 24.9584C78.1251 24.9584 77.0834 24.5417 76.2501 23.7501C75.8638 23.3646 75.5574 22.9067 75.3483 22.4027C75.1392 21.8986 75.0316 21.3583 75.0316 20.8126C75.0316 20.2669 75.1392 19.7265 75.3483 19.2225C75.5574 18.7184 75.8638 18.2606 76.2501 17.8751L76.7917 17.3334C77.1775 16.9477 77.6355 16.6417 78.1395 16.4329C78.6435 16.2241 79.1837 16.1167 79.7292 16.1167C80.2748 16.1167 80.815 16.2241 81.319 16.4329C81.823 16.6417 82.281 16.9477 82.6667 17.3334C83.0525 17.7192 83.3585 18.1771 83.5673 18.6812C83.776 19.1852 83.8835 19.7254 83.8835 20.2709C83.8835 20.8165 83.776 21.3567 83.5673 21.8607C83.3585 22.3647 83.0525 22.8227 82.6667 23.2084L82.1251 23.7501C81.3334 24.5417 80.2917 24.9584 79.2084 24.9584ZM20.7917 24.9584C19.7084 24.9584 18.6667 24.5417 17.8334 23.7501L17.2917 23.1667C16.906 22.781 16.6 22.323 16.3912 21.819C16.1824 21.315 16.075 20.7748 16.075 20.2292C16.075 19.6837 16.1824 19.1435 16.3912 18.6395C16.6 18.1355 16.906 17.6775 17.2917 17.2917C17.6775 16.906 18.1355 16.6 18.6395 16.3912C19.1435 16.1824 19.6837 16.075 20.2292 16.075C20.7748 16.075 21.315 16.1824 21.819 16.3912C22.323 16.6 22.781 16.906 23.1667 17.2917L23.7084 17.8334C25.3334 19.4584 25.3334 22.0834 23.7084 23.7084C22.9167 24.5417 21.8334 24.9584 20.7917 24.9584ZM50.0001 12.6667C47.7084 12.6667 45.8334 10.9584 45.8334 8.66675V8.33341C45.8334 6.04175 47.7084 4.16675 50.0001 4.16675C52.2917 4.16675 54.1667 6.04175 54.1667 8.33341C54.1667 10.6251 52.2917 12.6667 50.0001 12.6667Z" fill="url(#paint0_linear_627_2726)"/>
<defs>
<linearGradient id="paint0_linear_627_2726" x1="-4.15143" y1="50.266" x2="104.305" y2="50.266" gradientUnits="userSpaceOnUse">
<stop stop-color="#FFFA01"/>
<stop offset="1" stop-color="#FC8B38"/>
</linearGradient>
</defs>
</svg>
