<svg width="40" height="30" viewBox="0 0 40 30" fill="none" xmlns="http://www.w3.org/2000/svg">
<path d="M34.1666 11.875C36.6666 11.875 36.6666 12.5 36.6666 13.75V16.25C36.6666 17.5 36.6666 18.125 34.1666 18.125M16.6666 10L13.5166 13.125C12.8666 13.9625 13.6666 15 14.95 15H18.7833C20.0666 15 20.8666 16.0375 20.2333 16.875L16.6666 20M11.6666 23.75C4.99998 23.75 3.33331 22.5 3.33331 17.5V12.5C3.33331 7.5 4.99998 6.25 11.6666 6.25M21.6666 6.25C28.3333 6.25 30 7.5 30 12.5V17.5C30 22.5 28.3333 23.75 21.6666 23.75" stroke="#5465FF" stroke-width="1.5" stroke-linecap="round" stroke-linejoin="round"/>
</svg>
