<svg width="30" height="30" viewBox="0 0 30 30" fill="none" xmlns="http://www.w3.org/2000/svg">
<path d="M4.99998 10.0001H3.74998M26.25 10.0001H25M15 3.7501V6.2501M13.125 6.2501H16.875M7.49998 18.7501H11.25M18.75 18.7501H22.5M19.3875 3.5376H10.6125C7.49998 3.5376 6.81248 5.0876 6.41248 6.9876L4.99998 13.7501H25L23.5875 6.9876C23.1875 5.0876 22.5 3.5376 19.3875 3.5376V3.5376ZM27.4875 24.7751C27.625 26.2376 26.45 27.5001 24.95 27.5001H22.6C21.25 27.5001 21.0625 26.9251 20.825 26.2126L20.575 25.4626C20.225 24.4376 20 23.7501 18.2 23.7501H11.8C9.99997 23.7501 9.73748 24.5251 9.42498 25.4626L9.17498 26.2126C8.93748 26.9251 8.74998 27.5001 7.39998 27.5001H5.04998C3.54998 27.5001 2.37498 26.2376 2.51248 24.7751L3.21248 17.1626C3.38748 15.2876 3.74998 13.7501 7.02498 13.7501H22.975C26.25 13.7501 26.6125 15.2876 26.7875 17.1626L27.4875 24.7751Z" stroke="#5465FF" stroke-width="1.5" stroke-linecap="round" stroke-linejoin="round"/>
</svg>
