<svg width="40" height="45" viewBox="0 0 40 45" fill="none" xmlns="http://www.w3.org/2000/svg">
<path d="M20 25.1812C20.6829 25.1812 21.3591 25.0299 21.99 24.7359C22.6209 24.4419 23.1941 24.011 23.677 23.4678C24.1599 22.9246 24.5429 22.2797 24.8042 21.5699C25.0655 20.8601 25.2 20.0994 25.2 19.3312C25.2 18.563 25.0655 17.8023 24.8042 17.0925C24.5429 16.3827 24.1599 15.7378 23.677 15.1946C23.1941 14.6514 22.6209 14.2205 21.99 13.9265C21.3591 13.6325 20.6829 13.4812 20 13.4812C18.6209 13.4812 17.2983 14.0975 16.3231 15.1946C15.3479 16.2917 14.8 17.7797 14.8 19.3312C14.8 20.8827 15.3479 22.3707 16.3231 23.4678C17.2983 24.5649 18.6209 25.1812 20 25.1812V25.1812Z" stroke="#5465FF" stroke-width="1.5"/>
<path d="M6.03338 15.9188C9.31671 -0.318745 30.7 -0.299995 33.9667 15.9375C35.8834 25.4625 30.6167 33.525 26 38.5125C24.3868 40.2629 22.233 41.241 19.9917 41.241C17.7505 41.241 15.5966 40.2629 13.9834 38.5125C9.38338 33.525 4.11671 25.4438 6.03338 15.9188V15.9188Z" stroke="#5465FF" stroke-width="1.5"/>
</svg>
