<svg width="30" height="30" viewBox="0 0 30 30" fill="none" xmlns="http://www.w3.org/2000/svg">
<path d="M15 15V11.25M15 27.5V23.75M11.25 27.5H18.75M21.525 2.5H11.2C10.7 2.5 10.225 2.675 9.83752 2.975L7.10002 5.1625C6.00002 6.0375 6.00002 7.7 7.10002 8.575L9.83752 10.7625C10.225 11.075 10.7125 11.2375 11.2 11.2375H21.525C22.7375 11.2375 23.7125 10.2625 23.7125 9.05V4.675C23.7125 3.475 22.7375 2.5 21.525 2.5ZM8.50002 15H18.825C19.325 15 19.8 15.175 20.1875 15.475L22.925 17.6625C24.025 18.5375 24.025 20.2 22.925 21.075L20.1875 23.2625C19.8 23.575 19.3125 23.7375 18.825 23.7375H8.50002C7.28752 23.7375 6.31252 22.7625 6.31252 21.55V17.175C6.31252 15.975 7.28752 15 8.50002 15V15Z" stroke="#5465FF" stroke-width="1.5" stroke-linecap="round" stroke-linejoin="round"/>
</svg>
